<svg width="15" height="15" viewBox="0 0 15 15" fill="none" xmlns="http://www.w3.org/2000/svg">
<path d="M3.20499 2.23415C3.20479 2.63197 3.04656 3.01343 2.76512 3.29459C2.48367 3.57575 2.10206 3.7336 1.70424 3.7334C1.30641 3.7332 0.92496 3.57497 0.643796 3.29353C0.362632 3.01208 0.204788 2.63047 0.204987 2.23265C0.205186 1.83482 0.363412 1.45337 0.644857 1.17221C0.926302 0.891044 1.30791 0.7332 1.70574 0.733399C2.10356 0.733598 2.48501 0.891824 2.76618 1.17327C3.04734 1.45471 3.20519 1.83632 3.20499 2.23415ZM3.24999 4.84415H0.249987V14.2341H3.24999V4.84415ZM7.98999 4.84415H5.00499V14.2341H7.95999V9.30665C7.95999 6.56165 11.5375 6.30665 11.5375 9.30665V14.2341H14.5V8.28665C14.5 3.65915 9.20499 3.83165 7.95999 6.10415L7.98999 4.84415Z" fill="#75757F"/>
</svg>
