<svg width="14" height="13" viewBox="0 0 14 13" fill="none" xmlns="http://www.w3.org/2000/svg">
<path d="M12.359 2.38534C12.9874 1.9777 13.4035 1.4213 13.6072 0.713675C12.9959 1.05639 12.387 1.29144 11.7788 1.4213C11.232 0.79997 10.5399 0.484375 9.71002 0.484375C8.89884 0.484375 8.21365 0.785176 7.65446 1.37034C7.09838 1.95962 6.81762 2.67546 6.81762 3.51129C6.81762 3.76525 6.84795 3.99208 6.90862 4.1844C4.5163 4.0981 2.53619 3.0494 0.976057 1.03091C0.711627 1.52485 0.579412 2.02783 0.579412 2.54807C0.579412 3.61731 1.00639 4.46465 1.85879 5.0868C1.3727 5.04324 0.94417 4.91339 0.579412 4.70052C0.579412 5.46403 0.791734 6.1018 1.21715 6.66313C1.64413 7.21871 2.19243 7.57293 2.86206 7.72415C2.61941 7.7899 2.36354 7.82113 2.10066 7.82113C1.85801 7.82113 1.68613 7.79976 1.58425 7.75292C1.76312 8.37507 2.10066 8.87969 2.5883 9.26596C3.07438 9.65388 3.63358 9.85853 4.26199 9.87661C3.22604 10.7355 2.04155 11.1604 0.701517 11.1604C0.373313 11.1604 0.14077 11.1554 0 11.1291C1.31982 12.0348 2.78896 12.4844 4.41442 12.4844C6.078 12.4844 7.54791 12.0389 8.82729 11.148C10.1067 10.2621 11.0508 9.16899 11.6575 7.88195C12.2672 6.59656 12.569 5.25857 12.569 3.8614V3.47677C13.1585 3.00831 13.6352 2.48068 14 1.89798C13.4711 2.13878 12.9244 2.30233 12.359 2.38534Z" fill="#75757F"/>
</svg>
