<svg width="16" height="13" viewBox="0 0 16 13" fill="none" xmlns="http://www.w3.org/2000/svg">
<path d="M15.6657 2.36197C15.4817 1.62291 14.9395 1.04084 14.2511 0.843313C13.0033 0.484375 8 0.484375 8 0.484375C8 0.484375 2.99669 0.484375 1.7489 0.843313C1.06052 1.04088 0.518349 1.62291 0.334336 2.36197C0 3.70156 0 6.4965 0 6.4965C0 6.4965 0 9.29144 0.334336 10.631C0.518349 11.3701 1.06052 11.9279 1.7489 12.1254C2.99669 12.4844 8 12.4844 8 12.4844C8 12.4844 13.0033 12.4844 14.2511 12.1254C14.9395 11.9279 15.4817 11.3701 15.6657 10.631C16 9.29144 16 6.4965 16 6.4965C16 6.4965 16 3.70156 15.6657 2.36197V2.36197ZM6.36363 9.03409V3.95891L10.5454 6.49656L6.36363 9.03409V9.03409Z" fill="#75757F"/>
</svg>
