<svg width="16" height="17" viewBox="0 0 16 17" fill="none" xmlns="http://www.w3.org/2000/svg">
<path fill-rule="evenodd" clip-rule="evenodd" d="M4.8 0.484375H11.2C13.851 0.484375 16 2.63341 16 5.28438V11.6844C16 14.3353 13.851 16.4844 11.2 16.4844H4.8C2.14903 16.4844 0 14.3353 0 11.6844V5.28438C0 2.63341 2.14903 0.484375 4.8 0.484375ZM4.8 2.08438C3.03269 2.08438 1.6 3.51706 1.6 5.28438V11.6844C1.6 13.4517 3.03269 14.8844 4.8 14.8844H11.2C12.9673 14.8844 14.4 13.4517 14.4 11.6844V5.28438C14.4 3.51706 12.9673 2.08438 11.2 2.08438H4.8ZM8 12.4844C5.79086 12.4844 4 10.6935 4 8.48438C4 6.27524 5.79086 4.48438 8 4.48438C10.2091 4.48438 12 6.27524 12 8.48438C12 10.6935 10.2091 12.4844 8 12.4844ZM8 10.8844C9.32548 10.8844 10.4 9.80986 10.4 8.48438C10.4 7.15889 9.32548 6.08437 8 6.08437C6.67452 6.08437 5.6 7.15889 5.6 8.48438C5.6 9.80986 6.67452 10.8844 8 10.8844ZM12 5.28438C11.5582 5.28438 11.2 4.9262 11.2 4.48438C11.2 4.04255 11.5582 3.68438 12 3.68438C12.4418 3.68438 12.8 4.04255 12.8 4.48438C12.8 4.9262 12.4418 5.28438 12 5.28438Z" fill="#75757F"/>
</svg>
