<svg width="164" height="35" viewBox="0 0 164 35" fill="none" xmlns="http://www.w3.org/2000/svg">
<path fill-rule="evenodd" clip-rule="evenodd" d="M6.41538 8.97047C9.15572 5.46825 13.5439 3.1993 18.4899 3.1993C23.4649 3.1993 27.8754 5.49502 30.6125 9.03237C30.4959 9.14619 30.3899 9.26416 30.2938 9.38197C29.7924 9.99884 29.4152 10.7934 29.113 11.6003C28.5044 13.2231 28.0402 15.3429 27.6105 17.3278L27.5722 17.5063C27.1434 19.4876 26.7448 21.3303 26.2629 22.6982C26.0464 23.3127 25.8411 23.7472 25.659 24.0254C25.469 23.7449 25.2534 23.3052 25.0253 22.6818C24.5098 21.2747 24.0763 19.3607 23.6167 17.317L23.6018 17.2501V17.25C23.1602 15.2871 22.6917 13.2043 22.1076 11.61C21.8142 10.8091 21.4542 10.0225 20.9832 9.41131C20.5211 8.81155 19.7517 8.13467 18.6266 8.13467C17.5085 8.13467 16.7356 8.8042 16.2667 9.39724C15.7867 10.0045 15.4125 10.7878 15.1042 11.5891C14.4834 13.2026 13.9758 15.3133 13.5034 17.301L13.4546 17.5063C12.9869 19.4753 12.5496 21.3162 12.0532 22.6867C11.8637 23.21 11.6849 23.6083 11.5231 23.8927C11.3649 23.6096 11.1905 23.214 11.0062 22.6951C10.53 21.3538 10.1128 19.5644 9.66481 17.6426L9.58638 17.3063C9.12218 15.3174 8.61854 13.2029 7.98886 11.5843C7.67601 10.7801 7.29334 9.9928 6.79816 9.38275C6.68602 9.24468 6.5586 9.1045 6.41538 8.97047ZM4.75685 11.6596C4.88737 11.9045 5.02544 12.208 5.16819 12.575C5.71325 13.976 6.17498 15.8877 6.65047 17.9249L6.74303 18.3219C7.17595 20.1807 7.62629 22.1144 8.15675 23.6083C8.43889 24.4028 8.77961 25.181 9.21778 25.7858C9.63216 26.3578 10.3756 27.0967 11.5186 27.0967C12.6584 27.0967 13.4036 26.3614 13.8208 25.792C14.2627 25.1886 14.609 24.4112 14.8968 23.6162C15.4486 22.0927 15.9184 20.1138 16.368 18.2199V18.2198L16.4368 17.9303C16.9212 15.8918 17.3876 13.9763 17.9286 12.5702C18.1793 11.9187 18.4139 11.4649 18.6182 11.1833C18.8118 11.4625 19.033 11.9091 19.2676 12.5493C19.7832 13.9566 20.2163 15.8705 20.676 17.9142L20.691 17.9811C21.1325 19.9441 21.601 22.027 22.1851 23.6211C22.4785 24.4223 22.8386 25.2089 23.3095 25.8199C23.7718 26.4198 24.541 27.0967 25.666 27.0967C26.797 27.0967 27.5634 26.4136 28.0202 25.8084C28.484 25.1943 28.8327 24.405 29.1144 23.6052C29.6559 22.0687 30.0864 20.0752 30.497 18.1788V18.1787L30.5558 17.9034C30.9978 15.8622 31.422 13.9558 31.946 12.559C32.0594 12.2551 32.1712 11.996 32.2778 11.7784C33.0805 13.5265 33.5257 15.4567 33.5257 17.4857C33.5257 25.3757 26.7942 31.7721 18.4899 31.7721C10.1857 31.7721 3.45386 25.3757 3.45386 17.4857C3.45386 15.4106 3.91948 13.4388 4.75685 11.6596ZM18.4899 0.342041C8.52488 0.342041 0.446655 8.01749 0.446655 17.4857C0.446655 26.9538 8.52488 34.6292 18.4899 34.6292C28.4551 34.6292 36.5329 26.9538 36.5329 17.4857C36.5329 8.01749 28.4551 0.342041 18.4899 0.342041ZM18.8336 10.9442C18.8336 10.9445 18.8301 10.9472 18.8231 10.9511C18.8301 10.9458 18.8336 10.9438 18.8336 10.9442ZM18.418 10.9461C18.411 10.9421 18.4075 10.9393 18.4075 10.9389C18.4075 10.9385 18.4111 10.9406 18.418 10.9461ZM25.4373 24.2966C25.4373 24.2966 25.4406 24.2935 25.4471 24.2896C25.4406 24.2949 25.4373 24.2971 25.4373 24.2966ZM25.8746 24.2851C25.8815 24.2891 25.8853 24.2918 25.8853 24.2922C25.8853 24.2926 25.8815 24.2904 25.8746 24.2851ZM11.2105 24.3223C11.2104 24.3218 11.2148 24.3178 11.2234 24.3121C11.2148 24.3196 11.2105 24.3227 11.2105 24.3223ZM11.8195 24.3148C11.8281 24.3205 11.8324 24.3245 11.8324 24.3249C11.8323 24.3254 11.828 24.3227 11.8195 24.3148Z" fill="#81818B"/>
<path d="M46.4958 27.6351L42.1205 13.4144H45.953L48.5481 23.6498L51.5652 13.4144H55.8503L58.868 23.6498L61.493 13.4144H65.3255L60.9197 27.6351H56.9066L53.7078 16.9982L50.5095 27.6351H46.4958Z" fill="#81818B"/>
<path d="M70.9488 27.9793C69.6615 27.9793 68.6052 27.7877 67.7804 27.4055C66.9562 27.0042 66.3424 26.4786 65.9398 25.8287C65.5376 25.1788 65.3365 24.4621 65.3365 23.6785C65.3365 22.3597 65.8794 21.2893 66.9656 20.4674C68.0519 19.6455 69.682 19.2346 71.8544 19.2346H75.6565V18.8905C75.6565 17.9157 75.3646 17.199 74.7813 16.7402C74.198 16.2815 73.4735 16.0522 72.6089 16.0522C71.824 16.0522 71.1399 16.2337 70.5566 16.5969C69.9734 16.9409 69.6111 17.457 69.4704 18.1451H65.6983C65.7991 17.113 66.1613 16.2146 66.7845 15.45C67.4287 14.6855 68.2535 14.1025 69.2588 13.7012C70.2653 13.2807 71.3914 13.0704 72.6388 13.0704C74.7713 13.0704 76.4508 13.5769 77.6783 14.5899C78.9052 15.603 79.5189 17.0366 79.5189 18.8905V27.6351H76.2292L75.8675 25.3416C75.425 26.1061 74.8012 26.7366 73.9969 27.2338C73.2121 27.7306 72.1962 27.9793 70.9488 27.9793ZM71.824 25.112C72.9307 25.112 73.7854 24.7678 74.3886 24.0798C75.0123 23.3919 75.405 22.5411 75.5662 21.5282H72.2765C71.2507 21.5282 70.5167 21.7098 70.0736 22.0729C69.6316 22.4168 69.41 22.8472 69.41 23.3631C69.41 23.9175 69.6316 24.3475 70.0736 24.6532C70.5167 24.9589 71.0995 25.112 71.824 25.112Z" fill="#81818B"/>
<path d="M85.5989 27.6351L80.1074 13.4144H84.1504L87.9525 24.1661L91.7545 13.4144H95.7981L90.2761 27.6351H85.5989Z" fill="#81818B"/>
<path d="M103.562 27.9793C102.054 27.9793 100.716 27.6732 99.5491 27.0617C98.3826 26.4498 97.4675 25.5898 96.8034 24.4811C96.1393 23.3728 95.808 22.092 95.808 20.6394C95.808 19.1677 96.1298 17.8584 96.7729 16.7116C97.4371 15.5648 98.3422 14.676 99.4893 14.0452C100.655 13.3954 102.023 13.0704 103.593 13.0704C105.061 13.0704 106.359 13.3762 107.486 13.9879C108.612 14.5995 109.487 15.4405 110.111 16.5109C110.754 17.5621 111.077 18.7376 111.077 20.0373C111.077 20.2476 111.066 20.4674 111.046 20.6967C111.046 20.9262 111.036 21.165 111.016 21.4135H99.64C99.7203 22.5221 100.123 23.3919 100.847 24.0228C101.591 24.6532 102.487 24.9687 103.533 24.9687C104.317 24.9687 104.971 24.8063 105.494 24.4811C106.037 24.1373 106.439 23.6976 106.701 23.1622H110.623C110.342 24.0608 109.869 24.8828 109.205 25.6283C108.561 26.3543 107.757 26.9277 106.791 27.3484C105.846 27.7687 104.769 27.9793 103.562 27.9793ZM103.593 16.0522C102.648 16.0522 101.812 16.3102 101.088 16.8262C100.364 17.3232 99.9014 18.0878 99.6998 19.1199H107.153C107.093 18.1833 106.731 17.4379 106.067 16.8836C105.403 16.3293 104.579 16.0522 103.593 16.0522Z" fill="#81818B"/>
<path d="M113.118 27.635V6.99219H116.98V27.635H113.118Z" fill="#81818B"/>
<path d="M126.991 27.9793C125.483 27.9793 124.145 27.6732 122.978 27.0617C121.812 26.4498 120.897 25.5898 120.233 24.4811C119.568 23.3728 119.237 22.092 119.237 20.6394C119.237 19.1677 119.559 17.8584 120.202 16.7116C120.866 15.5648 121.771 14.676 122.918 14.0452C124.085 13.3954 125.453 13.0704 127.022 13.0704C128.49 13.0704 129.788 13.3762 130.915 13.9879C132.041 14.5995 132.917 15.4405 133.54 16.5109C134.183 17.5621 134.506 18.7376 134.506 20.0373C134.506 20.2476 134.495 20.4674 134.475 20.6967C134.475 20.9262 134.465 21.165 134.445 21.4135H123.069C123.149 22.5221 123.552 23.3919 124.276 24.0228C125.02 24.6532 125.916 24.9687 126.962 24.9687C127.746 24.9687 128.4 24.8063 128.923 24.4811C129.466 24.1373 129.868 23.6976 130.13 23.1622H134.053C133.771 24.0608 133.298 24.8828 132.635 25.6283C131.99 26.3543 131.186 26.9277 130.22 27.3484C129.275 27.7687 128.199 27.9793 126.991 27.9793ZM127.022 16.0522C126.077 16.0522 125.242 16.3102 124.517 16.8262C123.793 17.3232 123.331 18.0878 123.129 19.1199H130.582C130.522 18.1833 130.16 17.4379 129.496 16.8836C128.832 16.3293 128.008 16.0522 127.022 16.0522Z" fill="#81818B"/>
<path d="M142.733 27.9793C141.405 27.9793 140.238 27.7784 139.233 27.3772C138.226 26.9564 137.422 26.3831 136.818 25.6566C136.215 24.9306 135.853 24.0896 135.732 23.134H139.625C139.745 23.6878 140.068 24.1661 140.591 24.5674C141.133 24.9496 141.827 25.1408 142.672 25.1408C143.517 25.1408 144.131 24.9784 144.513 24.6532C144.915 24.3285 145.117 23.9555 145.117 23.5352C145.117 22.9234 144.835 22.5124 144.272 22.3022C143.709 22.0729 142.924 21.8532 141.918 21.6429C141.275 21.5091 140.621 21.3466 139.957 21.1555C139.293 20.9644 138.68 20.7254 138.116 20.4388C137.573 20.1329 137.13 19.7506 136.788 19.2919C136.446 18.814 136.276 18.2311 136.276 17.543C136.276 16.2815 136.798 15.2207 137.845 14.3606C138.911 13.5005 140.399 13.0704 142.31 13.0704C144.081 13.0704 145.489 13.4622 146.535 14.2459C147.601 15.0296 148.235 16.1095 148.436 17.4857H144.785C144.563 16.4344 143.728 15.9088 142.281 15.9088C141.556 15.9088 140.993 16.0426 140.591 16.3102C140.208 16.5778 140.017 16.9122 140.017 17.3136C140.017 17.7342 140.309 18.0686 140.892 18.3171C141.476 18.5656 142.25 18.7949 143.216 19.0052C144.261 19.2346 145.217 19.4926 146.082 19.7793C146.967 20.0469 147.671 20.4579 148.195 21.0122C148.718 21.5473 148.979 22.3212 148.979 23.3343C148.999 24.2139 148.757 25.0067 148.255 25.7141C147.752 26.4211 147.028 26.9754 146.082 27.3772C145.137 27.7784 144.02 27.9793 142.733 27.9793Z" fill="#81818B"/>
<path d="M157.379 27.9793C156.052 27.9793 154.885 27.7784 153.879 27.3772C152.873 26.9564 152.069 26.3831 151.465 25.6566C150.862 24.9306 150.499 24.0896 150.379 23.134H154.272C154.392 23.6878 154.714 24.1661 155.237 24.5674C155.78 24.9496 156.474 25.1408 157.319 25.1408C158.164 25.1408 158.778 24.9784 159.16 24.6532C159.562 24.3285 159.764 23.9555 159.764 23.5352C159.764 22.9234 159.482 22.5124 158.918 22.3022C158.355 22.0729 157.571 21.8532 156.565 21.6429C155.921 21.5091 155.267 21.3466 154.603 21.1555C153.94 20.9644 153.326 20.7254 152.763 20.4388C152.22 20.1329 151.777 19.7506 151.435 19.2919C151.093 18.814 150.922 18.2311 150.922 17.543C150.922 16.2815 151.445 15.2207 152.491 14.3606C153.558 13.5005 155.046 13.0704 156.957 13.0704C158.727 13.0704 160.135 13.4622 161.182 14.2459C162.247 15.0296 162.881 16.1095 163.083 17.4857H159.431C159.21 16.4344 158.375 15.9088 156.927 15.9088C156.202 15.9088 155.639 16.0426 155.237 16.3102C154.855 16.5778 154.664 16.9122 154.664 17.3136C154.664 17.7342 154.955 18.0686 155.539 18.3171C156.122 18.5656 156.896 18.7949 157.862 19.0052C158.908 19.2346 159.864 19.4926 160.729 19.7793C161.614 20.0469 162.318 20.4579 162.841 21.0122C163.364 21.5473 163.626 22.3212 163.626 23.3343C163.646 24.2139 163.404 25.0067 162.901 25.7141C162.398 26.4211 161.675 26.9754 160.729 27.3772C159.783 27.7784 158.667 27.9793 157.379 27.9793Z" fill="#81818B"/>
</svg>
