<svg viewBox="0 0 64.00 64.00" id="icons" xmlns="http://www.w3.org/2000/svg" fill="#ffffff" stroke="#ffffff" stroke-width="0.00064" transform="matrix(1, 0, 0, 1, 0, 0)"><g id="SVGRepo_bgCarrier" stroke-width="0"></g><g id="SVGRepo_tracerCarrier" stroke-linecap="round" stroke-linejoin="round" stroke="#CCCCCC" stroke-width="0.256"></g><g id="SVGRepo_iconCarrier"><defs><style>.cls-1{fill:#ffffff;}</style></defs><title></title><path class="cls-1" d="M60.53,18.71A2,2,0,0,0,59,18H48.85A15,15,0,0,0,34,5H30A15,15,0,0,0,15.15,18H5a2,2,0,0,0-1.53.71A2,2,0,0,0,3,20.35l5.33,30.3A6.51,6.51,0,0,0,14.77,56H49.23a6.51,6.51,0,0,0,6.41-5.36L61,20.35A2,2,0,0,0,60.53,18.71ZM30,9h4a11,11,0,0,1,10.81,9H19.19A11,11,0,0,1,30,9ZM51.71,49.94A2.52,2.52,0,0,1,49.23,52H14.77a2.5,2.5,0,0,1-2.47-2L7.38,22H56.62Z"></path></g></svg>
